<?xml version="1.0" standalone="no"?>
<!DOCTYPE svg PUBLIC "-//W3C//DTD SVG 20010904//EN"
 "http://www.w3.org/TR/2001/REC-SVG-20010904/DTD/svg10.dtd">
<svg version="1.0" xmlns="http://www.w3.org/2000/svg"
 width="800.000000pt" height="800.000000pt" viewBox="0 0 800.000000 800.000000"
 preserveAspectRatio="xMidYMid meet">
<metadata>
Created by potrace 1.11, written by Peter Selinger 2001-2013
</metadata>
<g transform="translate(0.000000,800.000000) scale(0.100000,-0.100000)"
fill="#000000" stroke="none">
<path d="M2015 7470 c-11 -4 -29 -18 -41 -31 -11 -13 -396 -674 -854 -1469
-1172 -2031 -1120 -1940 -1120 -1970 0 -31 -50 58 1120 -1970 458 -795 846
-1458 862 -1475 l28 -30 1990 0 1990 0 28 30 c16 17 404 680 862 1475 1170
2028 1120 1939 1120 1970 0 30 52 -61 -1120 1970 -458 795 -846 1459 -862
1475 l-28 30 -1978 2 c-1087 1 -1986 -2 -1997 -7z m3353 -1117 c36 -31 1352
-2321 1352 -2353 0 -32 -1316 -2322 -1352 -2352 -19 -17 -99 -18 -1368 -18
-1269 0 -1349 1 -1368 18 -36 30 -1352 2320 -1352 2352 0 31 1316 2322 1352
2353 19 16 99 17 1368 17 1269 0 1349 -1 1368 -17z"/>
<path d="M3422 4978 c-17 -22 -562 -969 -562 -978 0 -9 545 -956 562 -977 8
-10 136 -13 578 -13 442 0 570 3 578 13 17 21 562 968 562 977 0 9 -545 956
-562 978 -15 18 -1141 18 -1156 0z"/>
</g>
</svg>
